<svg width="24" height="24" viewBox="0 0 24 24" fill="none" xmlns="http://www.w3.org/2000/svg">
<mask id="mask0_787_547" style="mask-type:luminance" maskUnits="userSpaceOnUse" x="0" y="0" width="24" height="24">
<rect width="24" height="24" fill="white"/>
</mask>
<g mask="url(#mask0_787_547)">
<path fill-rule="evenodd" clip-rule="evenodd" d="M11.2235 1.72492C11.0173 1.93121 10.9014 2.21099 10.9014 2.50273V5.54473C10.9014 5.83647 11.0173 6.11626 11.2235 6.32255C11.4298 6.52884 11.7096 6.64473 12.0014 6.64473C12.2931 6.64473 12.5729 6.52884 12.7792 6.32255C12.9855 6.11626 13.1014 5.83647 13.1014 5.54473V2.50273C13.1014 2.35828 13.0729 2.21524 13.0176 2.08178C12.9624 1.94832 12.8813 1.82706 12.7792 1.72492C12.677 1.62277 12.5558 1.54175 12.4223 1.48647C12.2889 1.43119 12.1458 1.40273 12.0014 1.40273C11.7096 1.40273 11.4298 1.51863 11.2235 1.72492Z" fill="#4E5968"/>
<path fill-rule="evenodd" clip-rule="evenodd" d="M7.01294 8.45367C7.14646 8.50921 7.28964 8.5378 7.43425 8.5378C7.57886 8.5378 7.72204 8.50921 7.85556 8.45367C7.98908 8.39813 8.1103 8.31674 8.21225 8.21418C8.41841 8.00775 8.5342 7.72793 8.5342 7.43618C8.5342 7.14444 8.41841 6.86462 8.21225 6.65818L6.06025 4.50818C5.85071 4.31911 5.57657 4.21773 5.29444 4.22497C5.0123 4.23221 4.74372 4.34752 4.54416 4.54709C4.34459 4.74665 4.22928 5.01523 4.22204 5.29737C4.2148 5.5795 4.31618 5.85364 4.50525 6.06318L6.65525 8.21418H6.65625C6.7582 8.31674 6.87942 8.39813 7.01294 8.45367Z" fill="#333D48" fill-opacity="0.16"/>
<path fill-rule="evenodd" clip-rule="evenodd" d="M6.32021 11.2265C6.11392 11.0202 5.83413 10.9043 5.54239 10.9043H2.50039C2.20865 10.9043 1.92886 11.0202 1.72257 11.2265C1.51628 11.4328 1.40039 11.7126 1.40039 12.0043C1.40039 12.296 1.51628 12.5758 1.72257 12.7821C1.92886 12.9884 2.20865 13.1043 2.50039 13.1043H5.54239C5.83413 13.1043 6.11392 12.9884 6.32021 12.7821C6.5265 12.5758 6.64239 12.296 6.64239 12.0043C6.64239 11.7126 6.5265 11.4328 6.32021 11.2265Z" fill="#4E5968" fill-opacity="0.32"/>
<path fill-rule="evenodd" clip-rule="evenodd" d="M4.50585 17.941C4.40368 18.0432 4.32264 18.1645 4.26735 18.298C4.21205 18.4315 4.18359 18.5745 4.18359 18.719C4.18359 18.8635 4.21205 19.0066 4.26735 19.1401C4.32264 19.2736 4.40368 19.3949 4.50585 19.497C4.71219 19.7034 4.99205 19.8193 5.28385 19.8193C5.42834 19.8193 5.57141 19.7908 5.7049 19.7355C5.83839 19.6802 5.95968 19.5992 6.06185 19.497L8.21185 17.347C8.40325 17.1379 8.50659 16.863 8.50036 16.5795C8.49412 16.2961 8.3788 16.026 8.1784 15.8255C7.978 15.6249 7.70796 15.5094 7.42453 15.503C7.1411 15.4966 6.86612 15.5998 6.65685 15.791L4.50585 17.941Z" fill="#4E5968" fill-opacity="0.56"/>
<path fill-rule="evenodd" clip-rule="evenodd" d="M11.2235 17.6812C11.0173 17.8875 10.9014 18.1672 10.9014 18.459V21.501C10.9014 21.7927 11.0173 22.0725 11.2235 22.2788C11.4298 22.4851 11.7096 22.601 12.0014 22.601C12.2931 22.601 12.5729 22.4851 12.7792 22.2788C12.9855 22.0725 13.1014 21.7927 13.1014 21.501V18.459C13.1014 18.1672 12.9855 17.8875 12.7792 17.6812C12.5729 17.4749 12.2931 17.359 12.0014 17.359C11.7096 17.359 11.4298 17.4749 11.2235 17.6812Z" fill="#4E5968" fill-opacity="0.56"/>
<path fill-rule="evenodd" clip-rule="evenodd" d="M16.9871 15.5537C16.8536 15.4984 16.7106 15.4699 16.5661 15.4699C16.4216 15.4699 16.2785 15.4984 16.145 15.5537C16.0115 15.609 15.8902 15.69 15.7881 15.7922C15.6859 15.8944 15.6049 16.0156 15.5496 16.1491C15.4943 16.2826 15.4658 16.4257 15.4658 16.5702C15.4658 16.7147 15.4943 16.8577 15.5496 16.9912C15.6049 17.1247 15.6859 17.246 15.7881 17.3482L17.9391 19.4982C18.0411 19.6006 18.1623 19.6819 18.2958 19.7374C18.4294 19.7928 18.5725 19.8214 18.7171 19.8214C18.8616 19.8214 19.0048 19.7928 19.1383 19.7374C19.2718 19.6819 19.3931 19.6006 19.4951 19.4982C19.5973 19.396 19.6783 19.2747 19.7337 19.1413C19.789 19.0078 19.8174 18.8647 19.8174 18.7202C19.8174 18.5757 19.789 18.4326 19.7337 18.2991C19.6783 18.1656 19.5973 18.0443 19.4951 17.9422L17.3451 15.7922H17.3441C17.2419 15.69 17.1206 15.609 16.9871 15.5537Z" fill="#4E5968" fill-opacity="0.72"/>
<path fill-rule="evenodd" clip-rule="evenodd" d="M18.4584 10.9043C18.1667 10.9043 17.8869 11.0202 17.6806 11.2265C17.4743 11.4328 17.3584 11.7126 17.3584 12.0043C17.3584 12.296 17.4743 12.5758 17.6806 12.7821C17.8869 12.9884 18.1667 13.1043 18.4584 13.1043H21.5004C21.7921 13.1043 22.0719 12.9884 22.2782 12.7821C22.4845 12.5758 22.6004 12.296 22.6004 12.0043C22.6004 11.7126 22.4845 11.4328 22.2782 11.2265C22.0719 11.0202 21.7921 10.9043 21.5004 10.9043H18.4584Z" fill="#4E5968" fill-opacity="0.72"/>
<path fill-rule="evenodd" clip-rule="evenodd" d="M17.3442 8.21666L19.4952 6.06566C19.6892 5.85687 19.7947 5.58098 19.7895 5.29602C19.7842 5.01107 19.6687 4.73924 19.4672 4.53771C19.2657 4.33618 18.9938 4.22065 18.7089 4.21542C18.4239 4.21019 18.148 4.31566 17.9392 4.50966L15.7892 6.65966C15.6355 6.81357 15.5309 7.00957 15.4884 7.22291C15.446 7.43625 15.4677 7.65738 15.5508 7.85839C15.634 8.0594 15.7748 8.23129 15.9555 8.35236C16.1362 8.47343 16.3487 8.53825 16.5662 8.53866C16.8472 8.53866 17.1292 8.43166 17.3442 8.21666Z" fill="#4E5968" fill-opacity="0.72"/>
</g>
</svg>
